# File created by Blade
# Date/Time:  Tue Apr 07 20:29:43 2015
#---------------------------------------------------------
:version 1.10
:name HOM
:units
  mass 1.0
  length 1.000000
  angle deg
:documentation
     Acclaim Skeleton File
:root
   axis xyz
   order TX TY TZ RX RY RZ
   position 0.000000 0.000000 0.000000
   orientation 0 0 0
:bonedata
   begin
      id 1
      name Spine_dum
      direction 0.000000 1.000000 0.000000
      length 4.885285
      axis 0.0 0.0 0.0 xyz
   end
   begin
      id 2
      name LeftUpLeg_dum
      direction 1.000000 0.000000 0.000000
      length 2.672193
      axis 0.0 0.0 0.0 xyz
   end
   begin
      id 3
      name RightUpLeg_dum
      direction -1.000000 0.000000 0.000000
      length 2.672193
      axis 0.0 0.0 0.0 xyz
   end
   begin
      id 4
      name Spine
      direction 0.000000 1.000000 0.000000
      length 0.000000
      axis 0.0 0.0 0.0 xyz
      dof rx ry rz
   end
   begin
      id 5
      name Spine_dum1
      direction 0.000000 1.000000 0.000000
      length 16.494159
      axis 0.0 0.0 0.0 xyz
   end
   begin
      id 6
      name Spine_dum2
      direction 0.000000 1.000000 0.000000
      length 10.663448
      axis 0.0 0.0 0.0 xyz
   end
   begin
      id 7
      name Spine_dum3
      direction 0.000000 1.000000 0.000000
      length 10.663448
      axis 0.0 0.0 0.0 xyz
   end
   begin
      id 8
      name Head
      direction 0.000000 1.000000 0.000000
      length 4.527550
      axis 0.0 0.0 0.0 xyz
      dof rx ry rz
   end
   begin
      id 9
      name LeftShoulder
      direction 1.000000 0.000000 0.000000
      length 7.531907
      axis 0.0 0.0 -90.0 xyz
      dof rx ry rz
   end
   begin
      id 10
      name LeftArm
      direction 1.000000 0.000000 0.000000
      length 10.229199
      axis 0.0 0.0 -90.0 xyz
      dof rx ry rz
   end
   begin
      id 11
      name LeftForeArm
      direction 1.000000 0.000000 0.000000
      length 8.673495
      axis 0.0 0.0 -90.0 xyz
      dof ry rz rx
   end
   begin
      id 12
      name LeftHand
      direction 0.000000 0.000000 0.000000
      length 0.000000
      axis 0.0 0.0 -90.0 xyz
      dof rx ry rz
   end
   begin
      id 13
      name LeftHand_dum1
      direction 0.000000 0.000000 0.000000
      length 0.000000
      axis 0.0 0.0 -90.0 xyz
   end
   begin
      id 14
      name LeftHand_dum2
      direction 1.000000 0.000000 0.000000
      length 3.937000
      axis 0.0 0.0 -90.0 xyz
   end
   begin
      id 15
      name LeftHandThumb1
      direction 0.000000 0.000000 1.000000
      length 3.937000
      axis 0.0 0.0 -90.0 xyz
      dof rx rz ry
   end
   begin
      id 16
      name RightShoulder
      direction -1.000000 0.000000 0.000000
      length 7.531907
      axis 0.0 0.0 90.0 xyz
      dof rx ry rz
   end
   begin
      id 17
      name RightArm
      direction -1.000000 0.000000 0.000000
      length 10.229199
      axis 0.0 0.0 90.0 xyz
      dof rx ry rz
   end
   begin
      id 18
      name RightForeArm
      direction -1.000000 0.000000 0.000000
      length 8.673495
      axis 0.0 0.0 90.0 xyz
      dof ry rz rx
   end
   begin
      id 19
      name RightHand
      direction 0.000000 0.000000 0.000000
      length 0.000000
      axis 0.0 0.0 90.0 xyz
      dof rx ry rz
   end
   begin
      id 20
      name RightHand_dum1
      direction 0.000000 0.000000 0.000000
      length 0.000000
      axis 0.0 0.0 90.0 xyz
   end
   begin
      id 21
      name RightHand_dum2
      direction -1.000000 0.000000 0.000000
      length 3.937000
      axis 0.0 0.0 90.0 xyz
   end
   begin
      id 22
      name RightHandThumb1
      direction 0.000000 0.000000 1.000000
      length 3.937000
      axis 0.0 0.0 90.0 xyz
      dof rx rz ry
   end
   begin
      id 23
      name LeftUpLeg
      direction 0.000000 -1.000000 0.000000
      length 16.263388
      axis 0.0 0.0 0.0 xyz
      dof rx ry rz
   end
   begin
      id 24
      name LeftLeg
      direction 0.000000 -1.000000 0.000000
      length 14.328163
      axis 0.0 0.0 0.0 xyz
      dof rx ry rz
   end
   begin
      id 25
      name LeftFoot
      direction 0.000000 -0.258819 0.965926
      length 5.031290
      axis 15.0 0.0 0.0 xyz
      dof rx ry rz
   end
   begin
      id 26
      name LeftToeBase
      direction 0.000000 0.000000 1.000000
      length 2.952750
      axis 0.0 0.0 0.0 xyz
      dof rx ry rz
   end
   begin
      id 27
      name RightUpLeg
      direction 0.000000 -1.000000 0.000000
      length 16.263388
      axis 0.0 0.0 0.0 xyz
      dof rx ry rz
   end
   begin
      id 28
      name RightLeg
      direction 0.000000 -1.000000 0.000000
      length 14.328163
      axis 0.0 0.0 0.0 xyz
      dof rx ry rz
   end
   begin
      id 29
      name RightFoot
      direction 0.000000 -0.258819 0.965926
      length 5.031290
      axis 15.0 0.0 0.0 xyz
      dof rx ry rz
   end
   begin
      id 30
      name RightToeBase
      direction 0.000000 0.000000 1.000000
      length 2.952750
      axis 0.0 0.0 0.0 xyz
      dof rx ry rz
   end
:hierarchy
   begin
      root Spine_dum LeftUpLeg_dum RightUpLeg_dum
      Spine_dum Spine
      LeftUpLeg_dum LeftUpLeg
      RightUpLeg_dum RightUpLeg
      Spine Spine_dum1 Spine_dum2 Spine_dum3
      Spine_dum1 Head
      Spine_dum2 LeftShoulder
      Spine_dum3 RightShoulder
      LeftShoulder LeftArm
      LeftArm LeftForeArm
      LeftForeArm LeftHand
      LeftHand LeftHand_dum1 LeftHand_dum2
      LeftHand_dum1 LeftHandThumb1
      RightShoulder RightArm
      RightArm RightForeArm
      RightForeArm RightHand
      RightHand RightHand_dum1 RightHand_dum2
      RightHand_dum1 RightHandThumb1
      LeftUpLeg LeftLeg
      LeftLeg LeftFoot
      LeftFoot LeftToeBase
      RightUpLeg RightLeg
      RightLeg RightFoot
      RightFoot RightToeBase
   end

# File created by Blade
# Date/Time:  Tue Apr 07 20:29:34 2015
# Frame Rate: 120.000 fps
#------------------------------------------------------
:FULLY-SPECIFIED
:DEGREES
460
root 3.314341 32.986339 -4.489215 -16.115203 21.046415 -15.538360
Spine 11.276979 -1.843067 15.159534
Head 6.457135 10.219156 4.754593
LeftShoulder -21.618743 42.275684 6.679536
LeftArm 49.632621 -5.415481 -75.371559
LeftForeArm -1.102127 0.000000 14.435949
LeftHand 6.409236 0.000000 -7.828809
LeftHandThumb1 -26.253704 0.000000 33.147579
RightShoulder -2.909385 -1.648599 -16.548943
RightArm 15.263535 -5.472111 84.865490
RightForeArm -0.720439 -0.000000 24.813137
RightHand 2.611297 0.000000 4.925877
RightHandThumb1 -24.326973 -0.000000 -32.862282
LeftUpLeg 2.886633 -10.495477 7.442416
LeftLeg 17.766621 -0.000000 -0.000000
LeftFoot -14.117188 7.675076 -8.175351
LeftToeBase -8.669396 -0.000000 0.000000
RightUpLeg -87.808020 6.922108 13.875049
RightLeg 91.718186 -0.000000 -0.000000
RightFoot 39.563443 -0.539770 7.044816
RightToeBase 28.739765 -0.000000 -0.000000
461
root 3.319345 32.989089 -4.477318 -16.059941 21.046373 -15.602709
Spine 11.220978 -1.828847 15.129995
Head 6.365664 10.221828 4.839241
LeftShoulder -21.613499 42.255574 6.675421
LeftArm 49.852820 -5.295981 -75.352360
LeftForeArm -1.188770 0.000000 14.335606
LeftHand 6.346169 0.000000 -7.738624
LeftHandThumb1 -26.253704 0.000000 33.147579
RightShoulder -2.918147 -1.603863 -16.447786
RightArm 15.324799 -5.440385 84.649913
RightForeArm -0.722960 -0.000000 25.236658
RightHand 2.605817 -0.000000 5.027380
RightHandThumb1 -24.326973 -0.000000 -32.862282
LeftUpLeg 2.785103 -10.398197 7.561825
LeftLeg 17.818666 -0.000000 -0.000000
LeftFoot -14.148381 7.480377 -8.695308
LeftToeBase -8.374287 -0.000000 0.000000
RightUpLeg -87.628755 6.835700 13.728789
RightLeg 93.329487 -0.000000 -0.000000
RightFoot 39.796331 0.018215 6.917767
RightToeBase 28.901809 -0.000000 -0.000000
462
root 3.321721 32.992209 -4.465891 -16.005112 21.067413 -15.674806
Spine 11.164002 -1.797511 15.087361
Head 6.262086 10.155088 4.971119
LeftShoulder -21.490140 42.139863 6.789624
LeftArm 49.945684 -5.138629 -75.293888
LeftForeArm -1.251054 -0.000000 14.252322
LeftHand 6.340268 -0.000000 -7.632748
LeftHandThumb1 -26.253704 0.000000 33.147579
RightShoulder -2.945247 -1.572109 -16.340349
RightArm 15.443818 -5.398351 84.465028
RightForeArm -0.668954 0.000000 25.466398
RightHand 2.725920 -0.000000 5.122626
RightHandThumb1 -24.326973 -0.000000 -32.862282
LeftUpLeg 2.633363 -10.249893 7.711375
LeftLeg 17.921702 -0.000000 -0.000000
LeftFoot -14.177000 7.151098 -9.432582
LeftToeBase -7.932614 -0.000000 0.000000
RightUpLeg -87.466656 6.747663 13.583638
RightLeg 94.840679 -0.000000 -0.000000
RightFoot 40.006183 0.447846 6.835497
RightToeBase 28.908223 -0.000000 -0.000000
463
root 3.319244 32.995708 -4.454001 -15.965184 21.090561 -15.758648
Spine 11.132165 -1.772375 15.030675
Head 6.166305 10.102097 5.110077
LeftShoulder -21.452852 42.092474 6.849501
LeftArm 50.154450 -4.961337 -75.235622
LeftForeArm -1.329038 -0.000000 14.141503
LeftHand 6.371647 -0.000000 -7.524784
LeftHandThumb1 -26.253704 0.000000 33.147579
RightShoulder -2.952290 -1.518149 -16.213220
RightArm 15.503511 -5.327461 84.279591
RightForeArm -0.621462 -0.000000 25.743980
RightHand 2.772133 -0.000000 5.229911
RightHandThumb1 -24.326973 -0.000000 -32.862282
LeftUpLeg 2.469005 -10.087278 7.900526
LeftLeg 18.042394 -0.000000 -0.000000
LeftFoot -14.234033 6.690421 -10.482441
LeftToeBase -7.300865 -0.000000 0.000000
RightUpLeg -87.307341 6.676382 13.458067
RightLeg 96.261135 -0.000000 -0.000000
RightFoot 40.159890 0.842474 6.587022
RightToeBase 29.079341 -0.000000 -0.000000
